<svg xmlns="http://www.w3.org/2000/svg" xmlns:xlink="http://www.w3.org/1999/xlink" width="24" height="24" viewBox="0 0 24 24" fill="none">
<circle cx="12.000005493164062" cy="12.000005493164062" r="11.76"   fill="#FFFFFF" >
</circle>
<path d="M12 0C18.6274 0 24 5.37258 24 12C24 18.6274 18.6274 24 12 24C5.37258 24 0 18.6274 0 12C0 5.37258 5.37258 0 12 0ZM12 0.72C5.77023 0.72 0.72 5.77023 0.72 12C0.72 18.2298 5.77023 23.28 12 23.28C18.2298 23.28 23.28 18.2298 23.28 12C23.28 5.77023 18.2298 0.72 12 0.72Z"   fill="#70EDD7" >
</path>
<path d="M17.2552 16.0205C17.1698 15.928 17.0496 15.8755 16.9237 15.8755C16.7979 15.8755 16.6777 15.928 16.5923 16.0205C16.5094 16.1089 16.41 16.1752 16.305 16.2249L16.305 6.98822C16.305 6.77829 16.1338 6.60704 15.9238 6.60704C15.7139 6.60704 15.5427 6.77829 15.5427 6.98822L15.5427 7.8224L14.3549 7.8224C14.145 7.8224 13.9737 7.99365 13.9737 8.20357C13.9737 8.4135 14.145 8.58475 14.3549 8.58475L15.5427 8.58475L15.5427 9.88297L14.3549 9.88297C14.145 9.88297 13.9737 10.0542 13.9737 10.2642C13.9737 10.4741 14.145 10.6453 14.3549 10.6453L15.5427 10.6453L15.5427 11.9435L14.3549 11.9435C14.145 11.9435 13.9737 12.1148 13.9737 12.3247C13.9737 12.5346 14.145 12.7059 14.3549 12.7059L15.5427 12.7059L15.5427 14.0041L14.3549 14.0041C14.145 14.0041 13.9737 14.1754 13.9737 14.3853C13.9737 14.5952 14.145 14.7665 14.3549 14.7665L15.5427 14.7665L15.5427 16.2304C15.4432 16.1807 15.3438 16.1199 15.2609 16.0315C14.5262 15.2471 13.3385 15.2471 12.6037 16.0315C12.2391 16.4238 11.6425 16.4238 11.2724 16.0315C10.5376 15.2471 9.3499 15.2471 8.61516 16.0315L8.57097 16.0592C8.14007 16.3188 7.62078 16.2359 7.20093 15.9597C7.01862 15.8382 6.78108 15.8658 6.62087 16.0315C6.43857 16.2249 6.43857 16.5453 6.62087 16.7386C7.35561 17.5231 8.54334 17.5231 9.27808 16.7386C9.64268 16.3464 10.2393 16.3464 10.6094 16.7386C11.3442 17.5231 12.5319 17.5231 13.2666 16.7386C13.6312 16.3464 14.2279 16.3464 14.598 16.7386C15.3327 17.5231 16.5205 17.5231 17.2552 16.7386C17.443 16.5287 17.443 16.2138 17.2552 16.0205Z"   fill="#70EDD7" >
</path>
<path d="M7.96328 11.0154C8.6483 11.0154 9.20073 11.5679 9.20073 12.2529C9.20073 12.9379 8.6483 13.4903 7.96328 13.4903C7.27826 13.4903 6.72583 12.9379 6.72583 12.2529C6.72583 11.5679 7.27826 11.0154 7.96328 11.0154ZM10.9077 12.8771C11.3331 12.8771 11.6812 13.2252 11.6812 13.6505C11.6812 14.0759 11.3331 14.4239 10.9077 14.4239C10.4824 14.4239 10.1343 14.0759 10.1343 13.6505C10.1343 13.2252 10.4824 12.8771 10.9077 12.8771ZM11.0624 8.23119C12.09 8.23119 12.9241 9.06536 12.9241 10.0929C12.9241 11.1204 12.09 11.9546 11.0624 11.9546C10.0349 11.9546 9.20073 11.1204 9.20073 10.0929C9.20134 9.06495 10.0345 8.2318 11.0624 8.23119Z"   fill="#70EDD7" >
</path>
</svg>
